<svg width="41" height="37" viewBox="0 0 41 37" fill="none" xmlns="http://www.w3.org/2000/svg">
<path d="M30.3125 15.6395L32.825 9.375L30.3125 3.1105C29.81 1.8375 28.5705 1 27.197 1H4.35C2.5075 1 1 2.5075 1 4.35V16.075C1 16.9963 1.75375 17.75 2.675 17.75C3.59625 17.75 4.35 18.5038 4.35 19.425V34.5C4.35 35.4213 5.10375 36.175 6.025 36.175H16.075C16.9963 36.175 17.75 35.4213 17.75 34.5V31.15C17.75 30.2288 16.9963 29.475 16.075 29.475H12.725C11.8038 29.475 11.05 28.7213 11.05 27.8V21.1C11.05 19.2575 12.5575 17.75 14.4 17.75H27.2138C28.5873 17.75 29.81 16.9125 30.3293 15.6395H30.3125Z" stroke="#19486D" stroke-linecap="round" stroke-linejoin="round"/>
<path d="M39.5203 9.37549H32.8203" stroke="#00AEEF" stroke-linecap="round" stroke-linejoin="round"/>
<path d="M7.69531 6.0249H21.0953" stroke="#00AEEF" stroke-linecap="round" stroke-linejoin="round"/>
<path d="M7.69531 11.0498H21.0953" stroke="#00AEEF" stroke-linecap="round" stroke-linejoin="round"/>
</svg>
