<svg width="43" height="37" viewBox="0 0 43 37" fill="none" xmlns="http://www.w3.org/2000/svg">
<path d="M13.6016 6.46826H40.3395C41.5424 6.46826 42.4173 7.63474 42.0892 8.78299L39.1001 19.2266H19.0512" stroke="#00AEEF" stroke-linecap="round" stroke-linejoin="round"/>
<path d="M0.84375 1H4.96288C5.76484 1 6.47566 1.52856 6.7126 2.29406L13.2194 23.4183C13.4563 24.1838 14.1671 24.7123 14.9691 24.7123H40.9597" stroke="#19486D" stroke-linecap="round" stroke-linejoin="round"/>
<path d="M17.2468 35.6294C19.26 35.6294 20.8921 33.9973 20.8921 31.9841C20.8921 29.9709 19.26 28.3389 17.2468 28.3389C15.2336 28.3389 13.6016 29.9709 13.6016 31.9841C13.6016 33.9973 15.2336 35.6294 17.2468 35.6294Z" stroke="#19486D" stroke-linecap="round" stroke-linejoin="round"/>
<path d="M37.2937 35.6294C39.3069 35.6294 40.9389 33.9973 40.9389 31.9841C40.9389 29.9709 39.3069 28.3389 37.2937 28.3389C35.2805 28.3389 33.6484 29.9709 33.6484 31.9841C33.6484 33.9973 35.2805 35.6294 37.2937 35.6294Z" stroke="#19486D" stroke-linecap="round" stroke-linejoin="round"/>
</svg>
